# xmcd
#
# Track frame offsets:
# 150
# 17327
# 32327
# 43802
# 59705
# 71480
# 85130
# 98632
# 111157
# 126532
# 140110
# 153160
# 167260
# 180085
# 196887
# 213387
# 227337
# 242715
# 254640
# 263595
#
# Disc length: 3694 seconds
#
#
# Revision: 0
# Processed by: cddbd v1.5.1PL2 Copyright (c) Steve Scherf et al.
# Submitted via: FreeRIP 2.945 
#
DISCID=070e6c14
DTITLE=BRONCO - 20 EXITOS
DYEAR=2006
DGENRE=Blues
TTITLE0=AMIGO BRONCO
TTITLE1=UNA ROSA Y UNA ESPINA
TTITLE2=EL CHUPETON
TTITLE3=CORAZON BANDIDO
TTITLE4=UN GOLPE MAS
TTITLE5=UNA NOCHE MAS
TTITLE6=QUE NO QUEDE HUELLA
TTITLE7=CUMBIA TRISTE
TTITLE8=SED
TTITLE9=MI CHICA DIFICIL
TTITLE10=VOY A TUMBAR LA CASITA
TTITLE11=A QUE LE TIRAMOS
TTITLE12=NO QUIERO VOLVER
TTITLE13=LAGRIMAS,SAL Y LIMON
TTITLE14=YA NO VIENE
TTITLE15=SI TE VUELVES A ENAMORAR
TTITLE16=UN FIN DE SEMANA
TTITLE17=LOS CASTIGADOS
TTITLE18=QUE TE HAN VISTO LLORAR
TTITLE19=SERGIO EL BAILADOR
EXTD=
EXTT0=
EXTT1=
EXTT2=
EXTT3=
EXTT4=
EXTT5=
EXTT6=
EXTT7=
EXTT8=
EXTT9=
EXTT10=
EXTT11=
EXTT12=
EXTT13=
EXTT14=
EXTT15=
EXTT16=
EXTT17=
EXTT18=
EXTT19=
PLAYORDER=
